<!-- Generator: Adobe Illustrator 17.1.0, SVG Export Plug-In  -->
<svg version="1.1"
	 xmlns="http://www.w3.org/2000/svg" xmlns:xlink="http://www.w3.org/1999/xlink" xmlns:a="http://ns.adobe.com/AdobeSVGViewerExtensions/3.0/"
	 x="0px" y="0px" width="371.4px" height="73.2px" viewBox="0 0 371.4 73.2" enable-background="new 0 0 371.4 73.2"
	 xml:space="preserve">
<defs>
</defs>
<g>
	<path fill="#3a3a3a" d="M67.2,33.2H47.5L41,44.4l0.3,0.2c0.3,0.2,0.6,0.3,1,0.3h10.1c0.4,0,0.7,0.3,0.7,0.7v7.8
		c0,0.2-0.1,0.4-0.3,0.5l-1.1,0.9c-1,0.9-2.7,1.8-5.2,2.7c-2.5,0.9-5.3,1.4-8.3,1.4c-6.3,0-11.7-2.2-16-6.4c-4.3-4.3-6.4-9.6-6.4-16
		c0-6.3,2.2-11.7,6.4-16c4.3-4.3,9.6-6.4,16-6.4c2.3,0,4.6,0.4,6.8,1.1c2.2,0.7,4,1.5,5.4,2.3c1.4,0.8,2.6,1.8,3.8,2.9
		c1.1,1.1,1.9,1.9,2.2,2.3l0.4,0.6l6.5-13.8L63,9.4c-0.1-0.1-0.3-0.2-0.4-0.4C60.9,7.7,59,6.3,56.9,5c-2.1-1.4-4.9-2.6-8.2-3.5
		C45.3,0.5,41.8,0,38.1,0C27.5,0,18.4,3.6,11,10.7C3.7,17.8,0,26.5,0,36.6s3.7,18.7,11,25.9c7.3,7.1,16.4,10.7,27.1,10.7
		c3.7,0,7.3-0.5,10.8-1.5c3.5-1,6.3-2.1,8.5-3.3c2.2-1.2,4.2-2.6,6.2-4.1c2-1.6,3.2-2.6,3.8-3.3c0.4-0.4,0.7-0.8,1-1.1
		c0.2-0.3,0.4-0.6,0.4-1V34.8C68.7,33.9,68,33.2,67.2,33.2z"/>
	<path fill="#262626" d="M106,22.1c-2.5,0-4.8,0.6-7.1,1.8L93,28.6v-6H80.5v49.1H93V48.1c0-4.2,1-7.4,2.9-9.7
		c1.9-2.2,4.5-3.4,7.8-3.4c1.8,0,3.2,0.2,4.2,0.5V22.1H106z"/>
	<path fill="#262626" d="M153,29.2c-4.8-5.1-10.4-7.6-16.9-7.6c-6.5,0-12.1,2.5-16.9,7.6c-4.8,5.1-7.2,11.1-7.2,17.9
		s2.4,12.8,7.2,17.9c4.8,5.1,10.4,7.6,16.9,7.6c6.5,0,12.1-2.5,16.9-7.6c4.8-5.1,7.2-11.1,7.2-17.9S157.8,34.3,153,29.2z"/>
	<polygon fill="#262626" points="221.4,22.6 212.5,52.1 203.8,22.6 194.5,22.6 185.7,52.1 176.9,22.6 163.9,22.6 179.4,71.6 
		190.3,71.6 199.1,43.6 207.9,71.6 218.8,71.6 234.3,22.6 	"/>
	<path fill="#262626" d="M269.9,59.8c-0.4,0.2-1,0.4-1.7,0.6c-0.8,0.2-1.6,0.3-2.4,0.3c-1.6,0-2.9-0.5-4-1.6c-1-1.1-1.6-2.4-1.6-3.9
		V35.6h9.2v-12h-9.2V8.1h-11.1v15.5h-9.3v12h7.9v20c0,11.3,4.8,17,14.3,17c3.1,0,5.9-0.5,8.4-1.5V59.6L269.9,59.8z"/>
	<path fill="#262626" d="M316.9,27.4c-3.3-3.9-7.5-5.8-12.7-5.8L292.7,27l-0.5,0.2l-1,0.5V1.6h-12.5v70.1h12.5V46.1
		c0-3.7,0.8-6.5,2.5-8.5c1.7-2,3.9-3,6.7-3c2.6,0,4.7,0.9,6.4,2.8c1.6,1.8,2.5,4.3,2.5,7.3v27h12.5V43.1
		C321.8,36.5,320.2,31.3,316.9,27.4z"/>
	<path fill="#262626" d="M365.9,27.1c-3.6-3.7-8.3-5.5-14-5.5c-2.2,0-4.4,0.4-6.5,1.1c-2.1,0.7-3.8,1.5-5.1,2.3
		c-1.3,0.8-2.5,1.8-3.6,2.9c-1.1,1.1-1.8,1.8-2.1,2.3c-0.3,0.4-0.6,0.8-0.7,1.1l6.9,7.5l1-1.2c0.7-0.9,1.9-1.7,3.6-2.6
		c1.7-0.8,3.6-1.2,5.6-1.2c2.5,0,4.4,0.7,5.8,2c1.4,1.3,2.1,3,2.1,5l-14.4,2.8c-4.2,0.8-7.5,2.6-9.9,5.2c-2.4,2.7-3.6,6-3.6,10
		c0,3.9,1.4,7.2,4.3,9.9c2.8,2.7,6.5,4.1,11,4.1l25-0.3V41.1C371.4,35.5,369.6,30.8,365.9,27.1z"/>
</g>
</svg>