<!-- Generator: Adobe Illustrator 17.1.0, SVG Export Plug-In  -->
<svg version="1.1"
	 xmlns="http://www.w3.org/2000/svg" xmlns:xlink="http://www.w3.org/1999/xlink" xmlns:a="http://ns.adobe.com/AdobeSVGViewerExtensions/3.0/"
	 x="0px" y="0px" width="852.6px" height="480.6px" viewBox="0 0 852.6 480.6" enable-background="new 0 0 852.6 480.6"
	 xml:space="preserve">
<defs>
</defs>
<g opacity="0.1">
	<rect x="17.1" y="194" fill="#2287FF" width="24.5" height="18.6"/>
	<rect x="172.5" y="0.5" fill="#2287FF" width="24.5" height="18.6"/>
	<path fill="#2287FF" d="M206.8,277.1h-6.1c-5.1,0-9.2-4.1-9.2-9.2v-0.2c0-5.1,4.1-9.2,9.2-9.2h6.1c5.1,0,9.2,4.1,9.2,9.2v0.2
		C216,273,211.9,277.1,206.8,277.1z"/>
	<path fill="#2287FF" d="M130.2,203.3h-6.1c-5.1,0-9.2-4.1-9.2-9.2v-0.2c0-5.1,4.1-9.2,9.2-9.2h6.1c5.1,0,9.2,4.1,9.2,9.2v0.2
		C139.4,199.2,135.3,203.3,130.2,203.3z"/>
	<path fill="#2287FF" d="M118,70h-6.1c-5.1,0-9.2-4.1-9.2-9.2v-0.2c0-5.1,4.1-9.2,9.2-9.2h6.1c5.1,0,9.2,4.1,9.2,9.2v0.2
		C127.2,65.9,123.1,70,118,70z"/>
	<path fill="#2287FF" d="M224.7,194.5h-13.1c-3.1,0-5.7-2.5-5.7-5.7v-7.2c0-3.1,2.5-5.7,5.7-5.7h13.1c3.1,0,5.7,2.5,5.7,5.7v7.2
		C230.4,192,227.9,194.5,224.7,194.5z"/>
	<polyline fill="#2287FF" points="29.3,70 29.3,88.6 4.8,88.6 	"/>
	<path fill="#2287FF" d="M203.8,107.1h-24.5v-6.5c0-6.7,5.4-12.1,12.1-12.1h0.2c6.7,0,12.1,5.4,12.1,12.1V107.1z"/>
	<path fill="#2287FF" d="M97.8,267.8H73.3v-6.5c0-6.7,5.4-12.1,12.1-12.1h0.2c6.7,0,12.1,5.4,12.1,12.1V267.8z"/>
	<path fill="#2287FF" d="M48.3,19.1H23.8v-6.5c0-6.7,5.4-12.1,12.1-12.1h0.2c6.7,0,12.1,5.4,12.1,12.1V19.1z"/>
	<circle fill="#2287FF" cx="78.3" cy="137.6" r="10.6"/>
	<rect x="282.6" y="193.4" fill="#2287FF" width="24.5" height="18.6"/>
	<rect x="438.1" y="0" fill="#2287FF" width="24.5" height="18.6"/>
	<path fill="#2287FF" d="M472.3,276.6h-6.1c-5.1,0-9.2-4.1-9.2-9.2v-0.2c0-5.1,4.1-9.2,9.2-9.2h6.1c5.1,0,9.2,4.1,9.2,9.2v0.2
		C481.5,272.5,477.4,276.6,472.3,276.6z"/>
	<path fill="#2287FF" d="M395.7,202.7h-6.1c-5.1,0-9.2-4.1-9.2-9.2v-0.2c0-5.1,4.1-9.2,9.2-9.2h6.1c5.1,0,9.2,4.1,9.2,9.2v0.2
		C405,198.6,400.8,202.7,395.7,202.7z"/>
	<path fill="#2287FF" d="M383.5,69.5h-6.1c-5.1,0-9.2-4.1-9.2-9.2v-0.2c0-5.1,4.1-9.2,9.2-9.2h6.1c5.1,0,9.2,4.1,9.2,9.2v0.2
		C392.7,65.3,388.6,69.5,383.5,69.5z"/>
	<path fill="#2287FF" d="M490.2,194h-13.1c-3.1,0-5.7-2.5-5.7-5.7v-7.2c0-3.1,2.5-5.7,5.7-5.7h13.1c3.1,0,5.7,2.5,5.7,5.7v7.2
		C495.9,191.4,493.4,194,490.2,194z"/>
	<polyline fill="#2287FF" points="294.8,69.5 294.8,88.1 270.3,88.1 	"/>
	<path fill="#2287FF" d="M469.3,106.6h-24.5v-6.5c0-6.7,5.4-12.1,12.1-12.1h0.2c6.7,0,12.1,5.4,12.1,12.1V106.6z"/>
	<path fill="#2287FF" d="M363.3,267.3h-24.5v-6.5c0-6.7,5.4-12.1,12.1-12.1h0.2c6.7,0,12.1,5.4,12.1,12.1V267.3z"/>
	<path fill="#2287FF" d="M313.8,18.6h-24.5v-6.5c0-6.7,5.4-12.1,12.1-12.1h0.2c6.7,0,12.1,5.4,12.1,12.1V18.6z"/>
	<circle fill="#2287FF" cx="343.8" cy="137.1" r="10.6"/>
	<rect x="555.9" y="203.1" fill="#2287FF" width="24.5" height="18.6"/>
	<rect x="711.4" y="9.6" fill="#2287FF" width="24.5" height="18.6"/>
	<path fill="#2287FF" d="M745.7,286.2h-6.1c-5.1,0-9.2-4.1-9.2-9.2v-0.2c0-5.1,4.1-9.2,9.2-9.2h6.1c5.1,0,9.2,4.1,9.2,9.2v0.2
		C754.9,282.1,750.7,286.2,745.7,286.2z"/>
	<path fill="#2287FF" d="M669.1,212.4H663c-5.1,0-9.2-4.1-9.2-9.2V203c0-5.1,4.1-9.2,9.2-9.2h6.1c5.1,0,9.2,4.1,9.2,9.2v0.2
		C678.3,208.2,674.2,212.4,669.1,212.4z"/>
	<path fill="#2287FF" d="M656.8,79.1h-6.1c-5.1,0-9.2-4.1-9.2-9.2v-0.2c0-5.1,4.1-9.2,9.2-9.2h6.1c5.1,0,9.2,4.1,9.2,9.2v0.2
		C666,75,661.9,79.1,656.8,79.1z"/>
	<path fill="#2287FF" d="M763.6,203.6h-13.1c-3.1,0-5.7-2.5-5.7-5.7v-7.2c0-3.1,2.5-5.7,5.7-5.7h13.1c3.1,0,5.7,2.5,5.7,5.7v7.2
		C769.3,201.1,766.7,203.6,763.6,203.6z"/>
	<polyline fill="#2287FF" points="568.1,79.1 568.1,97.7 543.7,97.7 	"/>
	<path fill="#2287FF" d="M742.6,116.2h-24.5v-6.5c0-6.7,5.4-12.1,12.1-12.1h0.2c6.7,0,12.1,5.4,12.1,12.1V116.2z"/>
	<path fill="#2287FF" d="M636.7,276.9h-24.5v-6.5c0-6.7,5.4-12.1,12.1-12.1h0.2c6.7,0,12.1,5.4,12.1,12.1V276.9z"/>
	<path fill="#2287FF" d="M587.1,28.2h-24.5v-6.5c0-6.7,5.4-12.1,12.1-12.1h0.2c6.7,0,12.1,5.4,12.1,12.1V28.2z"/>
	<circle fill="#2287FF" cx="617.1" cy="146.7" r="10.6"/>
	<rect x="821.4" y="202.5" fill="#2287FF" width="24.5" height="18.6"/>
	<polyline fill="#2287FF" points="833.7,78.6 833.7,97.1 809.2,97.1 	"/>
	<path fill="#2287FF" d="M852.6,27.7h-24.5v-6.5c0-6.7,5.4-12.1,12.1-12.1h0.2c6.7,0,12.1,5.4,12.1,12.1V27.7z"/>
	<rect x="104.9" y="333" fill="#2287FF" width="24.5" height="18.6"/>
	<path fill="#2287FF" d="M50.3,402.5h-6.1c-5.1,0-9.2-4.1-9.2-9.2v-0.2c0-5.1,4.1-9.2,9.2-9.2h6.1c5.1,0,9.2,4.1,9.2,9.2v0.2
		C59.5,398.3,55.4,402.5,50.3,402.5z"/>
	<path fill="#2287FF" d="M136.1,439.6h-24.5v-6.5c0-6.7,5.4-12.1,12.1-12.1h0.2c6.7,0,12.1,5.4,12.1,12.1V439.6z"/>
	<circle fill="#2287FF" cx="10.6" cy="470.1" r="10.6"/>
	<rect x="370.4" y="332.5" fill="#2287FF" width="24.5" height="18.6"/>
	<path fill="#2287FF" d="M315.8,401.9h-6.1c-5.1,0-9.2-4.1-9.2-9.2v-0.2c0-5.1,4.1-9.2,9.2-9.2h6.1c5.1,0,9.2,4.1,9.2,9.2v0.2
		C325,397.8,320.9,401.9,315.8,401.9z"/>
	<polyline fill="#2287FF" points="227.1,401.9 227.1,420.5 202.7,420.5 	"/>
	<path fill="#2287FF" d="M401.6,439.1h-24.5v-6.5c0-6.7,5.4-12.1,12.1-12.1h0.2c6.7,0,12.1,5.4,12.1,12.1V439.1z"/>
	<path fill="#2287FF" d="M246.1,351.1h-24.5v-6.5c0-6.7,5.4-12.1,12.1-12.1h0.2c6.7,0,12.1,5.4,12.1,12.1V351.1z"/>
	<circle fill="#2287FF" cx="276.1" cy="469.5" r="10.6"/>
	<rect x="643.7" y="342.1" fill="#2287FF" width="24.5" height="18.6"/>
	<path fill="#2287FF" d="M589.2,411.6h-6.1c-5.1,0-9.2-4.1-9.2-9.2v-0.2c0-5.1,4.1-9.2,9.2-9.2h6.1c5.1,0,9.2,4.1,9.2,9.2v0.2
		C598.4,407.4,594.2,411.6,589.2,411.6z"/>
	<polyline fill="#2287FF" points="500.5,411.6 500.5,430.1 476,430.1 	"/>
	<path fill="#2287FF" d="M675,448.7h-24.5v-6.5c0-6.7,5.4-12.1,12.1-12.1h0.2c6.7,0,12.1,5.4,12.1,12.1V448.7z"/>
	<path fill="#2287FF" d="M519.4,360.7H495v-6.5c0-6.7,5.4-12.1,12.1-12.1h0.2c6.7,0,12.1,5.4,12.1,12.1V360.7z"/>
	<polyline fill="#2287FF" points="766,411 766,429.6 741.5,429.6 	"/>
	<path fill="#2287FF" d="M785,360.1h-24.5v-6.5c0-6.7,5.4-12.1,12.1-12.1h0.2c6.7,0,12.1,5.4,12.1,12.1V360.1z"/>
</g>
</svg>
