<svg version="1.1"
	 xmlns="http://www.w3.org/2000/svg" xmlns:xlink="http://www.w3.org/1999/xlink" xmlns:a="http://ns.adobe.com/AdobeSVGViewerExtensions/3.0/"
	 x="0px" y="0px" width="1080px" height="1080px" viewBox="0 0 1080 1080" enable-background="new 0 0 1080 1080"
	 xml:space="preserve">
<defs>
</defs>
<circle fill="#DDDDDD" cx="540" cy="540" r="540"/>
<path fill="#191919" d="M842,512.6H663.5l-57.8,98c1.8,1.4,4,2.2,6.4,2.2h93.1c5.8,0,10.5,4.7,10.5,10.5v71.5c0,3.1-1.4,6-3.7,8
	l-10.1,8.4c-9.5,8.6-26,17.1-49.4,25.6c-23.5,8.5-49.4,12.7-77.9,12.7c-59.7,0-109.6-20-149.7-60.1c-40.1-40.1-60.1-90-60.1-149.7
	c0-59.7,20-109.6,60.1-149.7c40.1-40.1,90-60.1,149.7-60.1c21.7,0,42.9,3.3,63.7,10c20.8,6.7,37.6,14,50.3,21.8s24.6,17,35.4,27.4
	c10.6,10.2,17.5,17.4,20.7,21.7l55.9-118.2c-1.3-1.1-2.6-2.2-4-3.4c-15-12.5-32.2-24.9-51.7-37.4c-19.5-12.5-44.3-23.1-74.6-31.8
	c-30.3-8.8-62.2-13.1-95.8-13.1c-97.4,0-179.6,32.5-246.5,97.5c-67,65-100.4,143.4-100.4,235.2c0,91.8,33.5,170.2,100.4,235.4
	c67,65.2,149.1,97.8,246.5,97.8c33.8,0,66.7-4.5,98.7-13.4c31.9-8.9,57.8-18.8,77.5-29.6c19.7-10.8,38.5-23.3,56.1-37.4
	c17.7-14.1,29.1-24,34.3-29.8c3.7-4.1,6.6-7.5,8.9-10.1c1.6-1.9,2.5-4.3,2.5-6.8V523.1C852.4,517.3,847.8,512.6,842,512.6z"/>
</svg>
